{
    "asset" : {
        "generator" : "Khronos glTF Blender I/O v1.8.19",
        "version" : "2.0"
    },
    "scene" : 0,
    "scenes" : [
        {
            "name" : "Scene",
            "nodes" : [
                0
            ]
        }
    ],
    "nodes" : [
        {
            "mesh" : 0,
            "name" : "Sphere_Sphere.001",
            "rotation" : [
                0.7071068286895752,
                0,
                0,
                0.7071068286895752
            ]
        }
    ],
    "materials" : [
        {
            "doubleSided" : true,
            "name" : "Material.001",
            "pbrMetallicRoughness" : {
                "baseColorTexture" : {
                    "index" : 0
                },
                "metallicFactor" : 0,
                "roughnessFactor" : 0.5
            }
        },
        {
            "doubleSided" : true,
            "name" : "Material.002",
            "pbrMetallicRoughness" : {
                "baseColorTexture" : {
                    "index" : 1
                },
                "metallicFactor" : 0,
                "roughnessFactor" : 0.5
            }
        }
    ],
    "meshes" : [
        {
            "name" : "Sphere_Sphere.001",
            "primitives" : [
                {
                    "attributes" : {
                        "POSITION" : 0,
                        "NORMAL" : 1,
                        "TEXCOORD_0" : 2
                    },
                    "indices" : 3,
                    "material" : 0
                },
                {
                    "attributes" : {
                        "POSITION" : 4,
                        "NORMAL" : 5,
                        "TEXCOORD_0" : 6
                    },
                    "indices" : 7,
                    "material" : 1
                }
            ]
        }
    ],
    "textures" : [
        {
            "sampler" : 0,
            "source" : 0
        },
        {
            "sampler" : 0,
            "source" : 1
        }
    ],
    "images" : [
        {
            "bufferView" : 4,
            "mimeType" : "image/png",
            "name" : "Controlremote-beta"
        },
        {
            "bufferView" : 9,
            "mimeType" : "image/png",
            "name" : "Material"
        }
    ],
    "accessors" : [
        {
            "bufferView" : 0,
            "componentType" : 5126,
            "count" : 1690,
            "max" : [
                4.2703328132629395,
                0.9710170030593872,
                0.3111869990825653
            ],
            "min" : [
                -3.585068941116333,
                -0.9456790089607239,
                -0.2494090050458908
            ],
            "type" : "VEC3"
        },
        {
            "bufferView" : 1,
            "componentType" : 5126,
            "count" : 1690,
            "type" : "VEC3"
        },
        {
            "bufferView" : 2,
            "componentType" : 5126,
            "count" : 1690,
            "type" : "VEC2"
        },
        {
            "bufferView" : 3,
            "componentType" : 5123,
            "count" : 4431,
            "type" : "SCALAR"
        },
        {
            "bufferView" : 5,
            "componentType" : 5126,
            "count" : 580,
            "max" : [
                4.2703328132629395,
                0.9724829792976379,
                0.3779590129852295
            ],
            "min" : [
                -3.585068941116333,
                -0.9471970200538635,
                -0.23173600435256958
            ],
            "type" : "VEC3"
        },
        {
            "bufferView" : 6,
            "componentType" : 5126,
            "count" : 580,
            "type" : "VEC3"
        },
        {
            "bufferView" : 7,
            "componentType" : 5126,
            "count" : 580,
            "type" : "VEC2"
        },
        {
            "bufferView" : 8,
            "componentType" : 5123,
            "count" : 1743,
            "type" : "SCALAR"
        }
    ],
    "bufferViews" : [
        {
            "buffer" : 0,
            "byteLength" : 20280,
            "byteOffset" : 0
        },
        {
            "buffer" : 0,
            "byteLength" : 20280,
            "byteOffset" : 20280
        },
        {
            "buffer" : 0,
            "byteLength" : 13520,
            "byteOffset" : 40560
        },
        {
            "buffer" : 0,
            "byteLength" : 8862,
            "byteOffset" : 54080
        },
        {
            "buffer" : 0,
            "byteLength" : 1216927,
            "byteOffset" : 62944
        },
        {
            "buffer" : 0,
            "byteLength" : 6960,
            "byteOffset" : 1279872
        },
        {
            "buffer" : 0,
            "byteLength" : 6960,
            "byteOffset" : 1286832
        },
        {
            "buffer" : 0,
            "byteLength" : 4640,
            "byteOffset" : 1293792
        },
        {
            "buffer" : 0,
            "byteLength" : 3486,
            "byteOffset" : 1298432
        },
        {
            "buffer" : 0,
            "byteLength" : 23006,
            "byteOffset" : 1301920
        }
    ],
    "samplers" : [
        {
            "magFilter" : 9729,
            "minFilter" : 9987
        }
    ],
    "buffers" : [
        {
            "byteLength" : 1324928,
            "uri" : "data:application/octet-stream;base64,"
        }
    ]
}
